<svg width="37" height="36" viewBox="0 0 37 36" fill="none" xmlns="http://www.w3.org/2000/svg">
<g clip-path="url(#clip0_4002_159)">
<path d="M10.7114 0C11.0456 0 11.3661 0.13275 11.6024 0.369045C11.8387 0.605341 11.9714 0.925827 11.9714 1.26V3.6162H25.502V1.2762C25.502 0.942027 25.6347 0.621541 25.871 0.385245C26.1073 0.14895 26.4278 0.0162 26.762 0.0162C27.0962 0.0162 27.4167 0.14895 27.653 0.385245C27.8892 0.621541 28.022 0.942027 28.022 1.2762V3.6162H32.9C33.8545 3.6162 34.7699 3.99524 35.4449 4.66998C36.12 5.34472 36.4995 6.25993 36.5 7.2144V32.4018C36.4995 33.3563 36.12 34.2715 35.4449 34.9462C34.7699 35.621 33.8545 36 32.9 36H4.1C3.14553 36 2.23013 35.621 1.55505 34.9462C0.879972 34.2715 0.500477 33.3563 0.5 32.4018L0.5 7.2144C0.500477 6.25993 0.879972 5.34472 1.55505 4.66998C2.23013 3.99524 3.14553 3.6162 4.1 3.6162H9.4514V1.2582C9.45188 0.924339 9.58484 0.604315 9.82108 0.368409C10.0573 0.132502 10.3775 -3.40674e-07 10.7114 0ZM3.02 13.9356V32.4018C3.02 32.5436 3.04794 32.6841 3.10221 32.8151C3.15649 32.9461 3.23604 33.0652 3.33632 33.1655C3.43661 33.2658 3.55567 33.3453 3.6867 33.3996C3.81773 33.4539 3.95817 33.4818 4.1 33.4818H32.9C33.0418 33.4818 33.1823 33.4539 33.3133 33.3996C33.4443 33.3453 33.5634 33.2658 33.6637 33.1655C33.764 33.0652 33.8435 32.9461 33.8978 32.8151C33.9521 32.6841 33.98 32.5436 33.98 32.4018V13.9608L3.02 13.9356ZM12.5006 26.3142V29.313H9.5V26.3142H12.5006ZM19.9994 26.3142V29.313H17.0006V26.3142H19.9994ZM27.5 26.3142V29.313H24.4994V26.3142H27.5ZM12.5006 19.1556V22.1544H9.5V19.1556H12.5006ZM19.9994 19.1556V22.1544H17.0006V19.1556H19.9994ZM27.5 19.1556V22.1544H24.4994V19.1556H27.5ZM9.4514 6.1344H4.1C3.95817 6.1344 3.81773 6.16233 3.6867 6.21661C3.55567 6.27088 3.43661 6.35044 3.33632 6.45072C3.23604 6.55101 3.15649 6.67007 3.10221 6.8011C3.04794 6.93213 3.02 7.07257 3.02 7.2144V11.4174L33.98 11.4426V7.2144C33.98 7.07257 33.9521 6.93213 33.8978 6.8011C33.8435 6.67007 33.764 6.55101 33.6637 6.45072C33.5634 6.35044 33.4443 6.27088 33.3133 6.21661C33.1823 6.16233 33.0418 6.1344 32.9 6.1344H28.022V7.8066C28.022 8.14077 27.8892 8.46126 27.653 8.69755C27.4167 8.93385 27.0962 9.0666 26.762 9.0666C26.4278 9.0666 26.1073 8.93385 25.871 8.69755C25.6347 8.46126 25.502 8.14077 25.502 7.8066V6.1344H11.9714V7.7904C11.9714 8.12457 11.8387 8.44506 11.6024 8.68135C11.3661 8.91765 11.0456 9.0504 10.7114 9.0504C10.3772 9.0504 10.0567 8.91765 9.82045 8.68135C9.58415 8.44506 9.4514 8.12457 9.4514 7.7904V6.1344Z" fill="white"/>
</g>
<defs>
<clipPath id="clip0_4002_159">
<rect width="36" height="36" fill="white" transform="translate(0.5)"/>
</clipPath>
</defs>
</svg>
