<svg width="20" height="21" viewBox="0 0 20 21" fill="none" xmlns="http://www.w3.org/2000/svg">
<path d="M10 18.1668C11.4834 18.1668 12.9334 17.7269 14.1668 16.9028C15.4001 16.0787 16.3614 14.9073 16.9291 13.5369C17.4968 12.1664 17.6453 10.6584 17.3559 9.20357C17.0665 7.74872 16.3522 6.41234 15.3033 5.36345C14.2544 4.31456 12.918 3.60025 11.4632 3.31086C10.0083 3.02147 8.50032 3.17 7.12987 3.73765C5.75943 4.30531 4.58809 5.26661 3.76398 6.49997C2.93987 7.73334 2.5 9.18339 2.5 10.6668C2.5 11.9068 2.8 13.0759 3.33333 14.1059L2.5 18.1668L6.56083 17.3334C7.59083 17.8668 8.76083 18.1668 10 18.1668Z" stroke="white" stroke-width="2" stroke-linecap="round" stroke-linejoin="round"/>
</svg>
