<svg width="24" height="22" viewBox="0 0 24 22" fill="none" xmlns="http://www.w3.org/2000/svg">
<path d="M6 11C6 10.7045 6.0582 10.4119 6.17127 10.139C6.28434 9.86598 6.45008 9.61794 6.65901 9.40901C6.86794 9.20008 7.11598 9.03434 7.38896 8.92127C7.66194 8.8082 7.95453 8.75 8.25 8.75C8.54547 8.75 8.83806 8.8082 9.11104 8.92127C9.38402 9.03434 9.63206 9.20008 9.84099 9.40901C10.0499 9.61794 10.2157 9.86598 10.3287 10.139C10.4418 10.4119 10.5 10.7045 10.5 11C10.5 11.5967 10.2629 12.169 9.84099 12.591C9.41903 13.0129 8.84674 13.25 8.25 13.25C7.65326 13.25 7.08097 13.0129 6.65901 12.591C6.23705 12.169 6 11.5967 6 11ZM17.25 8.75C16.6533 8.75 16.081 8.98705 15.659 9.40901C15.2371 9.83097 15 10.4033 15 11C15 11.5967 15.2371 12.169 15.659 12.591C16.081 13.0129 16.6533 13.25 17.25 13.25C17.8467 13.25 18.419 13.0129 18.841 12.591C19.2629 12.169 19.5 11.5967 19.5 11C19.5 10.4033 19.2629 9.83097 18.841 9.40901C18.419 8.98705 17.8467 8.75 17.25 8.75Z" fill="white"/>
<path d="M0 1.25C0 1.05109 0.0790176 0.860322 0.21967 0.71967C0.360322 0.579018 0.551088 0.5 0.75 0.5H2.25C2.44891 0.5 2.63968 0.579018 2.78033 0.71967C2.92098 0.860322 3 1.05109 3 1.25V5H23.25C23.4489 5 23.6397 5.07902 23.7803 5.21967C23.921 5.36032 24 5.55109 24 5.75V16.25C24 16.4489 23.921 16.6397 23.7803 16.7803C23.6397 16.921 23.4489 17 23.25 17H3V20.75C3 20.9489 2.92098 21.1397 2.78033 21.2803C2.63968 21.421 2.44891 21.5 2.25 21.5C2.05109 21.5 1.86032 21.421 1.71967 21.2803C1.57902 21.1397 1.5 20.9489 1.5 20.75V2H0.75C0.551088 2 0.360322 1.92098 0.21967 1.78033C0.0790176 1.63968 0 1.44891 0 1.25ZM8.25 7.25C7.25544 7.25 6.30161 7.64509 5.59835 8.34835C4.89509 9.05161 4.5 10.0054 4.5 11C4.5 11.9946 4.89509 12.9484 5.59835 13.6517C6.30161 14.3549 7.25544 14.75 8.25 14.75C9.24456 14.75 10.1984 14.3549 10.9017 13.6517C11.6049 12.9484 12 11.9946 12 11C12 10.0054 11.6049 9.05161 10.9017 8.34835C10.1984 7.64509 9.24456 7.25 8.25 7.25ZM13.5 11C13.5 11.9946 13.8951 12.9484 14.5983 13.6517C15.3016 14.3549 16.2554 14.75 17.25 14.75C18.2446 14.75 19.1984 14.3549 19.9016 13.6517C20.6049 12.9484 21 11.9946 21 11C21 10.0054 20.6049 9.05161 19.9016 8.34835C19.1984 7.64509 18.2446 7.25 17.25 7.25C16.2554 7.25 15.3016 7.64509 14.5983 8.34835C13.8951 9.05161 13.5 10.0054 13.5 11Z" fill="white"/>
<path d="M4.5 17.75H9.75V19.25C9.75 19.4489 9.67098 19.6397 9.53033 19.7803C9.38968 19.921 9.19891 20 9 20H5.25C5.05109 20 4.86032 19.921 4.71967 19.7803C4.57902 19.6397 4.5 19.4489 4.5 19.25V17.75ZM10.5 19.25V17.75H16.5V19.25C16.5 19.4489 16.421 19.6397 16.2803 19.7803C16.1397 19.921 15.9489 20 15.75 20H11.25C11.0511 20 10.8603 19.921 10.7197 19.7803C10.579 19.6397 10.5 19.4489 10.5 19.25Z" fill="white"/>
</svg>
