<svg width="36" height="36" viewBox="0 0 36 36" fill="none" xmlns="http://www.w3.org/2000/svg">
<g clip-path="url(#clip0_4002_155)">
<rect width="36" height="36" rx="18" fill="#001A36"/>
<path d="M17.985 6.26923e-06C14.4256 0.00297246 10.9469 1.06117 7.98883 3.04084C5.03072 5.02051 2.72595 7.83276 1.36588 11.1221C0.00579759 14.4114 -0.348523 18.0301 0.347704 21.5208C1.04393 25.0115 2.75945 28.2174 5.27739 30.7332C7.79533 33.2491 11.0026 34.9619 14.4939 35.6552C17.9851 36.3485 21.6036 35.9912 24.8918 34.6284C28.18 33.2656 30.9903 30.9585 32.9675 27.9987C34.9447 25.0389 36 21.5594 36 18V17.979C35.9944 13.2061 34.0935 8.6309 30.7152 5.25935C27.3369 1.88781 22.7579 -0.00397436 17.985 6.26923e-06ZM17.9025 3.84601C21.641 3.84322 25.2276 5.32526 27.8737 7.96625C30.5197 10.6073 32.0086 14.191 32.013 17.9295V17.9445C32.013 20.7324 31.1865 23.4576 29.6379 25.7758C28.0893 28.094 25.8883 29.901 23.3129 30.9685C20.7375 32.036 17.9035 32.316 15.169 31.7731C12.4345 31.2302 9.92238 29.8888 7.95013 27.9184C5.97789 25.9481 4.63407 23.4372 4.08855 20.7033C3.54304 17.9693 3.82031 15.135 4.88532 12.5586C5.95033 9.98219 7.75527 7.77938 10.072 6.22859C12.3887 4.67781 15.1132 3.84868 17.901 3.84601H17.9025ZM15.4875 29.643L18.5565 26.574L12.6465 20.664C12.399 20.415 12.129 20.1045 11.9835 19.752C11.652 19.047 11.5065 17.9475 12.315 17.139C13.311 16.143 14.637 16.5585 15.924 17.844L21.606 23.526L24.675 20.457L18.744 14.526C18.4691 14.2523 18.2384 13.9375 18.06 13.593C17.6655 12.7845 17.685 11.769 18.4125 11.043C19.428 10.026 20.7555 10.3995 22.2285 11.8725L27.744 17.388L30.813 14.319L24.84 8.34601C21.813 5.31901 18.972 5.42251 17.022 7.37101C16.275 8.11951 15.819 8.90701 15.591 9.79801C15.384 10.6256 15.3559 11.4877 15.5085 12.327L15.468 12.369C13.974 11.748 12.273 12.12 10.968 13.4265C9.22501 15.168 9.28801 17.0145 9.49501 18.0915L9.43201 18.156L7.91851 16.932L5.26351 19.587C6.39488 20.6105 7.50169 21.6608 8.58301 22.737L15.4875 29.643Z" fill="white"/>
</g>
<rect x="2" y="2" width="32" height="32" rx="16" stroke="#FFCC00" stroke-width="4"/>
<defs>
<clipPath id="clip0_4002_155">
<rect width="36" height="36" rx="18" fill="white"/>
</clipPath>
</defs>
</svg>
