<svg width="16" height="17" viewBox="0 0 16 17" fill="none" xmlns="http://www.w3.org/2000/svg">
<g clip-path="url(#clip0_332_567)">
<path d="M3.00629e-06 3C3.00629e-06 2.60218 0.158038 2.22064 0.439343 1.93934C0.720647 1.65804 1.10218 1.5 1.5 1.5H12.5C12.8978 1.5 13.2794 1.65804 13.5607 1.93934C13.842 2.22064 14 2.60218 14 3V13.528C14 13.828 13.95 14.182 13.762 14.5H14.5C14.6326 14.5 14.7598 14.4473 14.8536 14.3536C14.9473 14.2598 15 14.1326 15 14V5C15 4.86739 15.0527 4.74021 15.1464 4.64645C15.2402 4.55268 15.3674 4.5 15.5 4.5C15.6326 4.5 15.7598 4.55268 15.8536 4.64645C15.9473 4.74021 16 4.86739 16 5V14C16 14.3978 15.842 14.7794 15.5607 15.0607C15.2794 15.342 14.8978 15.5 14.5 15.5H1.497C1.30016 15.5 1.10525 15.4612 0.923432 15.3858C0.741612 15.3103 0.576451 15.1998 0.437402 15.0605C0.298354 14.9212 0.188148 14.7558 0.113093 14.5738C0.0380385 14.3918 -0.000391466 14.1968 3.00629e-06 14V3ZM12 14.5C12.37 14.5 12.654 14.289 12.853 14.059C12.945 13.953 13 13.78 13 13.528V3C13 2.86739 12.9473 2.74021 12.8536 2.64645C12.7598 2.55268 12.6326 2.5 12.5 2.5H1.5C1.36739 2.5 1.24022 2.55268 1.14645 2.64645C1.05268 2.74021 1 2.86739 1 3V14C1 14.278 1.223 14.5 1.497 14.5H12Z" fill="#BEBEBE"/>
<path d="M2 3.5H12V5.5H2V3.5ZM2 6.5H6V9.5H2V6.5ZM2 10.5H6V11.5H2V10.5ZM2 12.5H6V13.5H2V12.5ZM7 6.5H9V7.5H7V6.5ZM10 6.5H12V7.5H10V6.5ZM7 8.5H9V9.5H7V8.5ZM10 8.5H12V9.5H10V8.5ZM7 10.5H9V11.5H7V10.5ZM10 10.5H12V11.5H10V10.5ZM7 12.5H9V13.5H7V12.5ZM10 12.5H12V13.5H10V12.5Z" fill="#BEBEBE"/>
</g>
<defs>
<clipPath id="clip0_332_567">
<rect width="16" height="16" fill="white" transform="translate(0 0.5)"/>
</clipPath>
</defs>
</svg>
