<svg width="32" height="32" viewBox="0 0 32 32" fill="none" xmlns="http://www.w3.org/2000/svg">
<path d="M29.2194 15.5519C28.0694 10.3531 26.3637 7.03687 23.63 6.22875C23.1005 6.07429 22.5515 5.99725 22 6C20.3194 6 18.9931 7 16 7C13.0069 7 11.6781 6 9.99999 6C9.42545 5.99695 8.85329 6.07394 8.29999 6.22875C5.56249 7.03687 3.87124 10.3562 2.70812 15.5519C1.52062 20.8587 1.73562 25.0519 4.05687 25.8569C5.68187 26.4194 7.13499 25.2562 8.51124 23.5444C10.0737 21.5944 11.9981 20.9944 16 20.9944C20.0019 20.9944 21.8512 21.5944 23.4162 23.5444C24.7912 25.2575 26.2981 26.4062 27.88 25.8669C30.4437 24.9912 30.4075 20.9212 29.2194 15.5519Z" stroke="#FF5733" stroke-width="1.5" stroke-miterlimit="10"/>
<path d="M18.75 14C18.75 14.2761 18.5261 14.5 18.25 14.5C17.9739 14.5 17.75 14.2761 17.75 14C17.75 13.7239 17.9739 13.5 18.25 13.5C18.5261 13.5 18.75 13.7239 18.75 14Z" fill="black" stroke="#FF5733" stroke-width="1.5"/>
<path d="M21 17.25C20.9011 17.25 20.8043 17.2206 20.7221 17.1656C20.6398 17.1106 20.5757 17.0325 20.5379 16.9411C20.5001 16.8496 20.4903 16.749 20.5097 16.652C20.5291 16.555 20.5768 16.4659 20.6469 16.396C20.7169 16.3261 20.8062 16.2786 20.9032 16.2595C21.0003 16.2403 21.1009 16.2504 21.1922 16.2884C21.2835 16.3265 21.3616 16.3907 21.4163 16.4731C21.4711 16.5555 21.5002 16.6523 21.5 16.7512C21.4997 16.8836 21.4468 17.0105 21.3531 17.104C21.2594 17.1975 21.1324 17.25 21 17.25Z" fill="black" stroke="#FF5733" stroke-width="1.5"/>
<path d="M21.5 11.25C21.5 11.5261 21.2761 11.75 21 11.75C20.7239 11.75 20.5 11.5261 20.5 11.25C20.5 10.9739 20.7239 10.75 21 10.75C21.2761 10.75 21.5 10.9739 21.5 11.25Z" fill="black" stroke="#FF5733" stroke-width="1.5"/>
<path d="M24.25 14C24.25 14.2761 24.0261 14.5 23.75 14.5C23.4739 14.5 23.25 14.2761 23.25 14C23.25 13.7239 23.4739 13.5 23.75 13.5C24.0261 13.5 24.25 13.7239 24.25 14Z" fill="black" stroke="#FF5733" stroke-width="1.5"/>
<path d="M10 11V17M13 14H7" stroke="#FF5733" stroke-width="1.5" stroke-linecap="round" stroke-linejoin="round"/>
</svg>
